<?xml version="1.0" encoding="UTF-8"?>
<svg id="Layer_1" xmlns="http://www.w3.org/2000/svg" version="1.1" viewBox="0 0 283.46 46.2">
  <!-- Generator: Adobe Illustrator 30.0.0, SVG Export Plug-In . SVG Version: 2.1.1 Build 123)  -->
  <defs>
    <style>
      .st0 {
        fill: #e6e7e8;
      }
    </style>
  </defs>
  <g>
    <path class="st0" d="M201.22,38.5v-19.65h6.5l2.81,10.05c.11.36.23.79.34,1.29.11.5.23.99.36,1.48.12.49.22.92.3,1.3h.23c.04-.32.1-.71.2-1.16.1-.45.2-.93.32-1.45.11-.52.24-1.01.37-1.49l2.81-10.02h6.39v19.65h-4.21v-9.31c0-.86,0-1.72.01-2.59,0-.87.03-1.63.06-2.28.03-.65.04-1.07.04-1.26h-.23c-.04.21-.13.6-.27,1.16-.14.56-.3,1.16-.46,1.79-.16.63-.31,1.17-.44,1.63l-3.06,10.85h-3.72l-3.09-10.83c-.11-.4-.24-.87-.39-1.42-.14-.54-.28-1.11-.4-1.69-.12-.58-.24-1.08-.36-1.5h-.23c.02.52.04,1.13.06,1.85.02.72.04,1.45.06,2.21.02.75.03,1.45.03,2.08v9.31h-4.01Z"/>
    <path class="st0" d="M232.69,38.84c-1.66,0-3.05-.28-4.18-.84-1.13-.56-1.98-1.43-2.55-2.59-.57-1.16-.86-2.64-.86-4.44s.29-3.3.86-4.45c.57-1.15,1.42-2.01,2.54-2.58,1.12-.56,2.49-.84,4.11-.84,1.53,0,2.82.27,3.87.82,1.05.54,1.84,1.38,2.38,2.52.53,1.14.8,2.6.8,4.4v1.03h-10.51c.04.88.18,1.62.42,2.23.24.61.61,1.06,1.12,1.36s1.18.44,2.02.44c.46,0,.87-.06,1.25-.17.37-.11.69-.29.96-.51.27-.23.48-.52.63-.86.15-.34.23-.74.23-1.17h3.89c0,.96-.17,1.79-.52,2.49s-.82,1.29-1.43,1.76c-.61.47-1.34.82-2.19,1.06-.85.24-1.79.36-2.82.36ZM229.2,29.33h6.36c0-.57-.07-1.07-.21-1.49-.14-.42-.34-.76-.59-1.03-.25-.27-.55-.46-.9-.59s-.75-.19-1.19-.19c-.73,0-1.33.12-1.82.36-.49.24-.86.6-1.12,1.09-.26.49-.43,1.1-.53,1.85Z"/>
    <path class="st0" d="M247.9,38.84c-1.24,0-2.31-.28-3.22-.84-.91-.56-1.61-1.43-2.1-2.59-.5-1.16-.75-2.65-.75-4.47s.25-3.3.76-4.45c.5-1.16,1.2-2.01,2.09-2.56.89-.55,1.91-.83,3.08-.83.65,0,1.25.07,1.82.21s1.06.37,1.49.67c.43.31.8.68,1.1,1.12h.17v-7.3h3.98v20.71h-3.26l-.31-2.03h-.2c-.5.8-1.15,1.4-1.95,1.79-.8.39-1.7.59-2.69.59ZM249.16,35.58c.74,0,1.35-.17,1.82-.52s.82-.84,1.04-1.49c.23-.65.34-1.42.34-2.32v-.52c0-.67-.06-1.28-.19-1.83-.12-.55-.32-1.02-.59-1.39-.27-.37-.6-.66-1-.86s-.88-.3-1.43-.3c-.8,0-1.44.16-1.92.47-.48.31-.82.79-1.03,1.43s-.31,1.44-.31,2.39v.66c0,.96.1,1.75.31,2.38s.55,1.1,1.03,1.42c.48.31,1.12.47,1.92.47Z"/>
    <path class="st0" d="M259.98,21.23v-3.44h3.98v3.44h-3.98ZM259.98,38.5v-15.06h3.98v15.06h-3.98Z"/>
    <path class="st0" d="M271.61,38.84c-.5,0-1.03-.06-1.59-.17-.56-.11-1.09-.32-1.59-.62-.5-.29-.9-.72-1.22-1.29-.32-.56-.47-1.28-.47-2.16,0-1.05.23-1.92.69-2.61.46-.69,1.11-1.23,1.96-1.62.85-.39,1.87-.66,3.05-.82,1.18-.15,2.49-.23,3.92-.23v-1.12c0-.44-.07-.82-.21-1.15-.14-.32-.39-.58-.74-.77-.35-.19-.84-.29-1.47-.29s-1.14.08-1.53.23c-.39.15-.67.35-.83.59-.16.24-.24.5-.24.79v.34h-3.87c-.02-.1-.03-.19-.03-.27v-.33c0-.88.27-1.64.8-2.28.53-.64,1.29-1.13,2.26-1.48.97-.34,2.11-.52,3.41-.52,1.39,0,2.56.18,3.51.54.94.36,1.67.9,2.18,1.6.51.71.76,1.59.76,2.66v6.84c0,.34.1.6.3.76.2.16.42.24.67.24h.94v2.61c-.19.1-.49.2-.89.3-.4.11-.89.16-1.46.16s-1.05-.08-1.48-.24c-.43-.16-.79-.39-1.07-.69-.29-.29-.49-.65-.6-1.07h-.2c-.33.4-.72.75-1.19,1.06-.47.31-1.01.54-1.63.72-.62.17-1.33.26-2.13.26ZM272.96,35.84c.54,0,1.01-.08,1.43-.24.42-.16.77-.38,1.06-.66.29-.28.51-.62.67-1.02.16-.4.24-.83.24-1.29v-.83c-1.07,0-2.02.07-2.86.21-.84.14-1.5.39-1.99.73-.49.34-.73.82-.73,1.43,0,.34.09.64.26.89s.42.44.74.57c.32.13.72.2,1.17.2Z"/>
  </g>
  <path class="st0" d="M174.44,33.06c-.26-.72.4-1.38.12-2.12-2.32-6.24,2.45-12.22,7.9-15.22,1.26-.69,3.45-1.25,4.49-1.96.63-.43,1.24-2.05,1.96-2.73.51-.48,1.49-1.06,2.16-1.27-.48-1.27-.08-2.85.58-4.02.56-.34,2.21,1.13,2.54,1.58.46.62.8,2.2.98,2.35.57.48,1.88.62,2.84,1.66,1.95,2.1,3.71,8.08-.81,8.19-.77.02-2.64-.65-3.06-.54-.37.1-1.83,1.49-1.88,1.86.41.64,1.15,1.02,1.64,1.63.94,1.15,2.31,4.19-.02,4.49-1.82.24-1.59-1.52-2.34-2.53-1.28-1.72-1.66-.08-2.15,1.15.37.79,1.14,1.17,1.56,1.99,1.29,2.52.07,5.4-.86,7.8.89.04,1.86-.22,2.55.47.56,1.44-.11,2.09-1.47,2.07-4.29-.04-12.38-.08-16.75-.08-9.59,0-13.8-10.92-11.21-20.25,1.2-4.31,5.66-9.27.49-12.8,2.08-1.69,4.7-3.11,7.38-3.57,8.87-1.5,11.96,6.11,7,13.35-1.49,2.17-3.61,3.97-4.66,6.48-1.39,3.29-5.35,8.68,1.02,12.02Z"/>
  <g>
    <path class="st0" d="M13.6,38.24c-1.72,0-3.35-.17-4.9-.52s-2.91-.89-4.1-1.65c-1.19-.76-2.12-1.72-2.79-2.88-.67-1.16-1.01-2.57-1.01-4.23v-.45c0-.16.01-.28.04-.36h6.36c-.03.09-.04.2-.04.34v.39c0,.92.25,1.69.75,2.32.5.63,1.24,1.1,2.21,1.42.97.32,2.1.47,3.39.47.83,0,1.57-.05,2.21-.15.64-.1,1.22-.24,1.72-.43s.92-.41,1.25-.67c.33-.26.57-.56.73-.9.16-.34.24-.73.24-1.16,0-.77-.25-1.4-.75-1.89s-1.19-.9-2.06-1.25c-.87-.34-1.85-.66-2.94-.95-1.09-.29-2.21-.58-3.35-.88-1.15-.3-2.26-.67-3.35-1.12s-2.06-.98-2.92-1.61c-.86-.63-1.55-1.43-2.06-2.41-.52-.97-.77-2.15-.77-3.52,0-1.46.31-2.72.92-3.78.62-1.06,1.48-1.93,2.6-2.62s2.41-1.2,3.87-1.52c1.46-.33,3.05-.49,4.77-.49,1.6,0,3.12.16,4.55.49,1.43.33,2.69.85,3.78,1.57,1.09.72,1.94,1.62,2.56,2.71.62,1.09.92,2.38.92,3.87v.52h-6.23v-.34c0-.77-.23-1.43-.69-1.98-.46-.54-1.1-.97-1.93-1.29-.83-.31-1.8-.47-2.92-.47-1.2,0-2.23.11-3.07.34-.84.23-1.49.57-1.93,1.01-.44.44-.67.97-.67,1.57,0,.69.25,1.25.75,1.7.5.44,1.19.83,2.06,1.16.87.33,1.85.62,2.94.88,1.09.26,2.2.54,3.35.86,1.14.32,2.26.69,3.35,1.12,1.09.43,2.06.97,2.92,1.61s1.55,1.44,2.06,2.38.77,2.08.77,3.39c0,2.26-.54,4.08-1.63,5.46-1.09,1.37-2.58,2.38-4.47,3.01s-4.05.95-6.49.95Z"/>
    <path class="st0" d="M45.43,45.37v-10.14h-.26c-.46.66-1.02,1.21-1.68,1.65-.66.44-1.4.78-2.24,1.01-.83.23-1.73.34-2.71.34-1.75,0-3.29-.42-4.62-1.27-1.33-.84-2.38-2.14-3.14-3.89-.76-1.75-1.14-3.95-1.14-6.62s.37-5,1.12-6.74c.74-1.75,1.8-3.04,3.16-3.87,1.36-.83,2.97-1.25,4.83-1.25,1.46,0,2.8.29,4.02.88,1.22.59,2.18,1.48,2.9,2.68h.3v-3.05h5.41v30.24h-5.97ZM40.67,33.35c.86,0,1.59-.15,2.19-.45s1.1-.74,1.48-1.31c.39-.57.67-1.27.86-2.08.19-.82.28-1.72.28-2.73v-.73c0-1.38-.17-2.55-.52-3.52-.34-.97-.86-1.72-1.57-2.23-.7-.52-1.61-.77-2.73-.77-1.2,0-2.16.24-2.88.71-.72.47-1.23,1.19-1.55,2.15-.32.96-.47,2.15-.47,3.59v.99c0,1.4.16,2.58.47,3.54.31.96.83,1.68,1.55,2.15.72.47,1.68.71,2.88.71Z"/>
    <path class="st0" d="M64.21,38.24c-2.29,0-4.11-.63-5.46-1.89-1.35-1.26-2.02-3.29-2.02-6.1v-15.12h5.97v14.13c0,.74.09,1.37.26,1.87.17.5.42.91.75,1.22.33.31.74.54,1.22.69.49.14,1.03.21,1.63.21.89,0,1.69-.21,2.41-.64.72-.43,1.27-1.02,1.68-1.78.4-.76.6-1.61.6-2.56v-13.15h5.97v22.6h-4.9l-.43-3.09h-.3c-.54.72-1.18,1.35-1.91,1.89-.73.54-1.55.97-2.47,1.27-.92.3-1.92.45-3.01.45Z"/>
    <path class="st0" d="M82.72,11.82v-5.16h5.97v5.16h-5.97Z"/>
    <path class="st0" d="M94.19,37.73V15.13h5.41v3.52h.3c.29-.74.66-1.42,1.12-2.04.46-.62,1.03-1.11,1.72-1.48.69-.37,1.49-.56,2.41-.56.49,0,.93.05,1.33.15s.7.19.9.28v5.41h-1.85c-.89,0-1.67.12-2.34.36s-1.24.62-1.7,1.14c-.46.52-.79,1.15-1.01,1.89s-.32,1.62-.32,2.62v11.3h-5.97Z"/>
    <path class="st0" d="M110.52,37.73V15.13h5.41v3.52h.3c.29-.74.66-1.42,1.12-2.04.46-.62,1.03-1.11,1.72-1.48.69-.37,1.49-.56,2.41-.56.49,0,.93.05,1.33.15s.7.19.9.28v5.41h-1.85c-.89,0-1.67.12-2.34.36s-1.24.62-1.7,1.14c-.46.52-.79,1.15-1.01,1.89s-.32,1.62-.32,2.62v11.3h-5.97Z"/>
    <path class="st0" d="M136.68,38.24c-2.49,0-4.58-.42-6.27-1.27-1.69-.84-2.96-2.14-3.82-3.89-.86-1.75-1.29-3.97-1.29-6.66s.43-4.95,1.29-6.68c.86-1.73,2.13-3.02,3.8-3.87,1.68-.84,3.73-1.27,6.16-1.27,2.29,0,4.22.41,5.8,1.22,1.57.82,2.76,2.08,3.57,3.78.8,1.7,1.2,3.9,1.2,6.59v1.55h-15.77c.06,1.32.26,2.43.62,3.35s.92,1.6,1.68,2.04c.76.44,1.77.67,3.03.67.69,0,1.31-.09,1.87-.26.56-.17,1.04-.43,1.44-.77s.72-.77.95-1.29c.23-.52.34-1.1.34-1.76h5.84c0,1.43-.26,2.68-.77,3.74-.52,1.06-1.23,1.94-2.15,2.64-.92.7-2.01,1.23-3.29,1.59-1.27.36-2.68.54-4.23.54ZM131.44,23.98h9.54c0-.86-.11-1.6-.32-2.23-.22-.63-.51-1.14-.88-1.55-.37-.4-.82-.69-1.35-.88-.53-.19-1.12-.28-1.78-.28-1.09,0-2,.18-2.73.54s-1.29.9-1.68,1.63c-.39.73-.65,1.65-.79,2.77Z"/>
    <path class="st0" d="M151.5,37.73V6.67h5.97v31.06h-5.97Z"/>
  </g>
  <g>
    <path class="st0" d="M87.29,21.68v-2.39h-4.54v-1.78h4.54v-2.38h1.43v6.55h-1.43Z"/>
    <path class="st0" d="M88.72,29.94h-5.97v-1.79h2.27v-3.31h-2.27v-1.78h5.97v1.78h-2.27v3.31h2.27v1.79Z"/>
    <path class="st0" d="M87.29,33.47h-.83v4.3h-1.43v-4.3h-.84v4.3h-1.44v-6.08h5.97v6.08h-1.43v-4.3Z"/>
  </g>
</svg>