<?xml version="1.0" encoding="UTF-8"?>
<svg id="Layer_1" xmlns="http://www.w3.org/2000/svg" version="1.1" viewBox="0 0 708.66 708.66">
  <!-- Generator: Adobe Illustrator 30.0.0, SVG Export Plug-In . SVG Version: 2.1.1 Build 123)  -->
  <path d="M503.77,79.53c10.25,1.23,16.42,8.82,13.5,19.23-1.89,6.71-8.84,13.74-10.95,20.02-.37,1.09-.95,2.06-.24,3.22,11.08,3.07,26.85-.91,33.93,10.5,4.44,7.15.94,16.26-6.14,19.9-4.03,2.07-36.17,7.3-36.14,9.62,3.33,3.48,8.09,5.2,11.11,9.07,4.92,6.3,5.74,15.25-1.08,20.5-10.5,8.07-24.92-1.88-35.77-5.17-4.8-1.46-9.67-2.54-14.65-3.18,5.92,7.01,10,16.63,2.03,23.91-2.01,1.84-7,4.38-9.7,4.31-5.69-.13-16.16-7.38-21.71-9.96-20.59-9.55-42.73-16.3-65.53-17.61-1.03,1.05,5.37,23.96,4.04,27.61,61.67,4.3,124.22,29.6,157.11,84.23,12.41,20.61,21.16,49.88,11.28,73.13-3.64,8.58-14.78,19.85-24.66,19.76-10.44-.09-27.96-7.54-38.73-10.46-73.72-19.98-168-20.04-241.92-.96-10.89,2.81-21.92,7.29-32.56,9.85-22.68,5.47-35.66-13.09-37.19-33.78-4.16-56.31,47.69-104.94,95.63-124.58,25.09-10.28,44.68-12.4,70.9-16.6,1.83-.29,4.35-.42,5.48-1.93,1.61-3.23-2.3-16.12-3.53-20.05-8.2-26.28-25.49-48.62-45.9-66.58-.15-.87,10.13-10.89,11.71-12.38,2.62-2.48,7.58-7.58,10.12-9.41.71-.51,1.35-1.29,2.35-1,.76.22,6.01,4.74,7.08,5.69,16.31,14.56,31.86,36.89,40.82,56.8,2.49,5.52,4.09,11.53,6.58,16.99.3.67.44,1.58,1.37,1.65,7.28-13.77,14.25-26.96,19.03-41.91,2.34-7.31,5.64-26.58,10.93-30.82,8.64-6.93,20.27-1.49,22.92,8.71,1.34,5.17.24,13.45,6.91,4.97,8.26-10.5,9.47-22.24,15.12-32.69,5.05-9.35,18.1-11.02,24.33-1.83.81,1.2,3.07,6.6,3.07,7.7v11.11c3.31-.36,6.78-3.6,9.43-5.71,9.08-7.26,16.86-17.22,27.59-21.89.66.05,1.37-.08,2.02,0ZM297.8,248.56l49.47,46.43,48.79-46.1c.02-1.22-13.44-3.21-15.34-3.5-17.09-2.62-34.42-2.84-51.61-1.55-10.51.79-21.02,2.48-31.3,4.71ZM266,259.43c-4.35,1.7-33.47,17.2-33.47,19.76l58.97,52.77c8.22,2.54,13.56.22,19.77-4.95,1.87-1.55,15.05-13.79,14.8-14.8l-57.9-52.55-2.17-.22ZM414.58,272.15l-17.21,15.08-.55,1.93,25.83,25.26,17.52-16.75.26-1.5-25.84-24.02ZM256.07,338.78c.25-1.08-.37-1.37-.99-2.04-3.82-4.13-10.11-9.18-14.48-13.12-8.97-8.08-18.41-15.68-27.24-23.94-.55-.56-1.14-.76-1.91-.56-1.51.39-7.52,9.64-8.67,11.6-7.86,13.45-13.12,30.69-10.65,46.24,20.71-7.87,42.19-13.83,63.93-18.19ZM399.44,332.72l-25.24-24.9-23.22,21.21c-.29,1.62.75.81,1.69.98,7.09,1.28,14.36.51,21.55.67l25.21,2.04ZM482.22,348.21c-4.39-11.46-10.29-22.97-19.17-31.52l-23.22,20.43,42.4,11.1Z"/>
  <path d="M348.29,607.46c-2.22-7.23-6.87-14.51-11.78-20.21-12.23-14.2-29.77-18.47-45.9-26.81-41.63-21.51-73.27-53.78-89.57-98.27-5.7-15.57-9.91-33.4-9.28-50.02l33.31-10.05c1.45,5.59.3,11.48.68,17.17,1.82,27.94,11.78,55.42,29,77.38,5.7,7.26,26.16,30.12,33.93,32.72,6.46,2.17,13.85-2.96,13.85-9.8,0-4.5-6.18-12.51-8.21-16.71-11.05-22.87-10.68-43.24-11.35-68.1l.06-44.77,27.23-3.43c2.06.15,2.25,3.52,2.37,5.05,1.62,19.64-.76,41.94-.05,62.01.4,11.36.7,27.33,7.81,36.63,4.44,5.8,12.23,7.71,18.14,2.75,7.55-6.35.57-14.92.3-22.54l.02-84.54,38.7.68c40.28,3.22,82.46,8.06,120.51,22.2,1.4.52,8.52,3.27,9.07,3.72.74.61.72,1.12.71,1.99-4.93,63.36-40.11,113.38-95.16,143.24-22.2,12.04-44.54,15.97-58.45,39.16-.58.97-5.12,11.18-5.93,10.55Z"/>
</svg>