<svg xmlns="http://www.w3.org/2000/svg" width="1200" height="630" viewBox="0 0 1200 630">
  <defs>
    <radialGradient id="glow" cx="50%" cy="45%" r="55%">
      <stop offset="0%" stop-color="#a855f7" stop-opacity="0.18"/>
      <stop offset="100%" stop-color="#0a0a0a" stop-opacity="0"/>
    </radialGradient>
    <radialGradient id="glowDot" cx="50%" cy="50%" r="50%">
      <stop offset="0%" stop-color="#a855f7" stop-opacity="0.35"/>
      <stop offset="100%" stop-color="#a855f7" stop-opacity="0"/>
    </radialGradient>
    <filter id="blur" x="-50%" y="-50%" width="200%" height="200%">
      <feGaussianBlur stdDeviation="60"/>
    </filter>
  </defs>

  <!-- Background -->
  <rect width="1200" height="630" fill="#0a0a0a"/>

  <!-- Ambient glow -->
  <ellipse cx="600" cy="280" rx="500" ry="300" fill="url(#glow)"/>

  <!-- Purple glow orb behind logo -->
  <ellipse cx="600" cy="255" rx="180" ry="180" fill="url(#glowDot)" filter="url(#blur)"/>

  <!-- Subtle grid lines -->
  <g stroke="#ffffff" stroke-opacity="0.03" stroke-width="1">
    <line x1="0" y1="105" x2="1200" y2="105"/>
    <line x1="0" y1="210" x2="1200" y2="210"/>
    <line x1="0" y1="315" x2="1200" y2="315"/>
    <line x1="0" y1="420" x2="1200" y2="420"/>
    <line x1="0" y1="525" x2="1200" y2="525"/>
    <line x1="150" y1="0" x2="150" y2="630"/>
    <line x1="300" y1="0" x2="300" y2="630"/>
    <line x1="450" y1="0" x2="450" y2="630"/>
    <line x1="600" y1="0" x2="600" y2="630"/>
    <line x1="750" y1="0" x2="750" y2="630"/>
    <line x1="900" y1="0" x2="900" y2="630"/>
    <line x1="1050" y1="0" x2="1050" y2="630"/>
  </g>

  <!-- Border frame -->
  <rect x="40" y="40" width="1120" height="550" rx="16" fill="none" stroke="#a855f7" stroke-opacity="0.2" stroke-width="1"/>

  <!-- Squirrel icon — centered and large -->
  <g transform="translate(600, 230) scale(6.5) translate(-181.3, -19.7)">
    <path fill="#a855f7" d="M174.44,33.06c-.26-.72.4-1.38.12-2.12-2.32-6.24,2.45-12.22,7.9-15.22,1.26-.69,3.45-1.25,4.49-1.96.63-.43,1.24-2.05,1.96-2.73.51-.48,1.49-1.06,2.16-1.27-.48-1.27-.08-2.85.58-4.02.56-.34,2.21,1.13,2.54,1.58.46.62.8,2.2.98,2.35.57.48,1.88.62,2.84,1.66,1.95,2.1,3.71,8.08-.81,8.19-.77.02-2.64-.65-3.06-.54-.37.1-1.83,1.49-1.88,1.86.41.64,1.15,1.02,1.64,1.63.94,1.15,2.31,4.19-.02,4.49-1.82.24-1.59-1.52-2.34-2.53-1.28-1.72-1.66-.08-2.15,1.15.37.79,1.14,1.17,1.56,1.99,1.29,2.52.07,5.4-.86,7.8.89.04,1.86-.22,2.55.47.56,1.44-.11,2.09-1.47,2.07-4.29-.04-12.38-.08-16.75-.08-9.59,0-13.8-10.92-11.21-20.25,1.2-4.31,5.66-9.27.49-12.8,2.08-1.69,4.7-3.11,7.38-3.57,8.87-1.5,11.96,6.11,7,13.35-1.49,2.17-3.61,3.97-4.66,6.48-1.39,3.29-5.35,8.68,1.02,12.02Z"/>
  </g>

  <!-- Wordmark: "the Squirrel Media" -->
  <text x="600" y="398" font-family="-apple-system, BlinkMacSystemFont, 'Segoe UI', sans-serif" font-size="42" font-weight="700" fill="#f5f5f5" text-anchor="middle" letter-spacing="-0.5">the Squirrel Media</text>

  <!-- Tagline -->
  <text x="600" y="446" font-family="-apple-system, BlinkMacSystemFont, 'Segoe UI', sans-serif" font-size="18" font-weight="400" fill="#888888" text-anchor="middle" letter-spacing="0.5">Identity · Digital Branding · Design &amp; Development</text>

  <!-- Accent line under tagline -->
  <line x1="530" y1="466" x2="670" y2="466" stroke="#a855f7" stroke-opacity="0.5" stroke-width="1"/>

  <!-- URL pill -->
  <rect x="488" y="492" width="224" height="36" rx="18" fill="#a855f7" fill-opacity="0.12" stroke="#a855f7" stroke-opacity="0.3" stroke-width="1"/>
  <text x="600" y="515" font-family="-apple-system, BlinkMacSystemFont, 'Segoe UI', sans-serif" font-size="14" font-weight="500" fill="#a855f7" text-anchor="middle" letter-spacing="0.5">thesquirrelmedia.com</text>
</svg>
